<svg xmlns="http://www.w3.org/2000/svg" xmlns:xlink="http://www.w3.org/1999/xlink" width="500" zoomAndPan="magnify" viewBox="0 0 375 374.999991" height="500" preserveAspectRatio="xMidYMid meet" version="1.0"><defs><clipPath id="5d6f2cfe0f"><path d="M 138.277344 0.714844 L 276.492188 0.714844 L 276.492188 121.476562 L 138.277344 121.476562 Z M 138.277344 0.714844 " clip-rule="nonzero"/></clipPath><clipPath id="39674985ee"><path d="M 207.484375 121.476562 L 138.480469 0.714844 L 276.492188 0.714844 Z M 207.484375 121.476562 " clip-rule="nonzero"/></clipPath><clipPath id="367367acce"><path d="M 0.441406 0.714844 L 138.492188 0.714844 L 138.492188 121.476562 L 0.441406 121.476562 Z M 0.441406 0.714844 " clip-rule="nonzero"/></clipPath><clipPath id="f454638bb3"><path d="M 69.484375 121.476562 L 0.480469 0.714844 L 138.492188 0.714844 Z M 69.484375 121.476562 " clip-rule="nonzero"/></clipPath><clipPath id="4e05dfd384"><rect x="0" width="139" y="0" height="122"/></clipPath><clipPath id="afebde1493"><path d="M 0.265625 0.714844 L 138.480469 0.714844 L 138.480469 121.476562 L 0.265625 121.476562 Z M 0.265625 0.714844 " clip-rule="nonzero"/></clipPath><clipPath id="f4e108f72a"><path d="M 69.472656 121.476562 L 0.46875 0.714844 L 138.480469 0.714844 Z M 69.472656 121.476562 " clip-rule="nonzero"/></clipPath><clipPath id="dbdff25721"><path d="M 0.441406 0.714844 L 138.480469 0.714844 L 138.480469 121.476562 L 0.441406 121.476562 Z M 0.441406 0.714844 " clip-rule="nonzero"/></clipPath><clipPath id="4798252255"><path d="M 69.472656 121.476562 L 0.46875 0.714844 L 138.480469 0.714844 Z M 69.472656 121.476562 " clip-rule="nonzero"/></clipPath><clipPath id="4112a7a248"><rect x="0" width="139" y="0" height="122"/></clipPath><clipPath id="bdef10c455"><path d="M 69.269531 121.476562 L 207.484375 121.476562 L 207.484375 242.238281 L 69.269531 242.238281 Z M 69.269531 121.476562 " clip-rule="nonzero"/></clipPath><clipPath id="35dbe807f4"><path d="M 138.480469 242.238281 L 69.472656 121.476562 L 207.484375 121.476562 Z M 138.480469 242.238281 " clip-rule="nonzero"/></clipPath><clipPath id="5077f4fb7c"><path d="M 0.320312 0.476562 L 138.484375 0.476562 L 138.484375 121.238281 L 0.320312 121.238281 Z M 0.320312 0.476562 " clip-rule="nonzero"/></clipPath><clipPath id="a0a7851968"><path d="M 69.480469 121.238281 L 0.472656 0.476562 L 138.484375 0.476562 Z M 69.480469 121.238281 " clip-rule="nonzero"/></clipPath><clipPath id="b86b56afe7"><rect x="0" width="139" y="0" height="122"/></clipPath><clipPath id="c9db08b6ec"><path d="M 102.742188 55.351562 L 173.894531 55.351562 L 173.894531 114 L 102.742188 114 Z M 102.742188 55.351562 " clip-rule="nonzero"/></clipPath><clipPath id="debc30d709"><path d="M 179.402344 17.511719 L 236 17.511719 L 236 74 L 179.402344 74 Z M 179.402344 17.511719 " clip-rule="nonzero"/></clipPath><clipPath id="ba87ebd55b"><path d="M 42.875 17.511719 L 96.953125 17.511719 L 96.953125 71.589844 L 42.875 71.589844 Z M 42.875 17.511719 " clip-rule="nonzero"/></clipPath><clipPath id="f571e37878"><path d="M 108.054688 136.886719 L 167.824219 136.886719 L 167.824219 178 L 108.054688 178 Z M 108.054688 136.886719 " clip-rule="nonzero"/></clipPath><clipPath id="12f0ae02e0"><path d="M 122.304688 142.757812 L 153.609375 142.757812 L 153.609375 168.371094 L 122.304688 168.371094 Z M 122.304688 142.757812 " clip-rule="nonzero"/></clipPath><clipPath id="8cc7147ec9"><rect x="0" width="277" y="0" height="243"/></clipPath></defs><g transform="matrix(1, 0, 0, 1, 49, 66)"><g clip-path="url(#8cc7147ec9)"><g clip-path="url(#5d6f2cfe0f)"><g clip-path="url(#39674985ee)"><g transform="matrix(1, 0, 0, 1, 138, 0)"><g clip-path="url(#4e05dfd384)"><g clip-path="url(#367367acce)"><g clip-path="url(#f454638bb3)"><path fill="#f97316" d="M 138.492188 121.476562 L 0.277344 121.476562 L 0.277344 0.714844 L 138.492188 0.714844 Z M 138.492188 121.476562 " fill-opacity="1" fill-rule="nonzero"/></g></g></g></g></g></g><g clip-path="url(#afebde1493)"><g clip-path="url(#f4e108f72a)"><g transform="matrix(1, 0, 0, 1, -0.000000000000007105, 0)"><g clip-path="url(#4112a7a248)"><g clip-path="url(#dbdff25721)"><g clip-path="url(#4798252255)"><path fill="#2e17c2" d="M 138.480469 121.476562 L 0.265625 121.476562 L 0.265625 0.714844 L 138.480469 0.714844 Z M 138.480469 121.476562 " fill-opacity="1" fill-rule="nonzero"/></g></g></g></g></g></g><g clip-path="url(#bdef10c455)"><g clip-path="url(#35dbe807f4)"><g transform="matrix(1, 0, 0, 1, 69, 121)"><g clip-path="url(#b86b56afe7)"><g clip-path="url(#5077f4fb7c)"><g clip-path="url(#a0a7851968)"><path fill="#404040" d="M 138.484375 121.238281 L 0.269531 121.238281 L 0.269531 0.476562 L 138.484375 0.476562 Z M 138.484375 121.238281 " fill-opacity="1" fill-rule="nonzero"/></g></g></g></g></g></g><g clip-path="url(#c9db08b6ec)"><path fill="#2e17c2" d="M 115.753906 88.425781 L 115.753906 101.421875 L 138.496094 113.832031 L 161.238281 101.421875 L 161.238281 88.425781 L 138.496094 100.835938 Z M 138.496094 55.351562 L 102.757812 74.847656 L 138.496094 94.339844 L 167.734375 78.386719 L 167.734375 100.835938 L 174.230469 100.835938 L 174.230469 74.847656 Z M 138.496094 55.351562 " fill-opacity="1" fill-rule="nonzero"/></g><g clip-path="url(#debc30d709)"><path fill="#ffffff" d="M 194.703125 28.550781 L 202.414062 28.550781 L 200.964844 21.859375 C 199.984375 21.644531 199.261719 20.75 199.261719 19.726562 C 199.261719 18.492188 200.242188 17.511719 201.476562 17.511719 C 202.714844 17.511719 203.695312 18.492188 203.695312 19.726562 C 203.695312 20.75 202.96875 21.644531 201.988281 21.859375 L 203.4375 28.550781 L 211.152344 28.550781 L 209.703125 21.859375 C 208.765625 21.601562 208.039062 20.75 208.039062 19.726562 C 208.039062 18.492188 209.019531 17.511719 210.257812 17.511719 C 211.449219 17.511719 212.472656 18.492188 212.472656 19.726562 C 212.472656 20.792969 211.703125 21.644531 210.726562 21.859375 L 212.171875 28.550781 L 220.355469 28.550781 C 222.402344 28.550781 224.148438 30.082031 224.445312 32.085938 L 231.179688 30.636719 C 231.265625 29.488281 232.203125 28.59375 233.394531 28.59375 C 234.589844 28.59375 235.570312 29.574219 235.570312 30.808594 C 235.570312 32.042969 234.589844 33.023438 233.394531 33.023438 C 232.457031 33.023438 231.648438 32.425781 231.308594 31.617188 L 224.488281 33.109375 L 224.488281 40.78125 L 231.179688 39.375 C 231.265625 38.265625 232.246094 37.371094 233.394531 37.371094 C 234.589844 37.371094 235.570312 38.351562 235.570312 39.585938 C 235.570312 40.824219 234.589844 41.804688 233.394531 41.804688 C 232.414062 41.804688 231.605469 41.207031 231.308594 40.355469 L 224.488281 41.804688 L 224.488281 49.515625 L 231.179688 48.109375 C 231.308594 47 232.246094 46.148438 233.394531 46.148438 C 234.589844 46.148438 235.570312 47.128906 235.570312 48.367188 C 235.570312 49.558594 234.589844 50.582031 233.394531 50.582031 C 232.414062 50.582031 231.605469 49.941406 231.308594 49.089844 L 224.488281 50.539062 L 224.488281 58.421875 C 224.488281 60.46875 222.957031 62.214844 220.953125 62.511719 L 222.402344 69.289062 C 223.550781 69.332031 224.488281 70.3125 224.488281 71.503906 C 224.488281 72.699219 223.507812 73.679688 222.273438 73.679688 C 221.082031 73.679688 220.101562 72.699219 220.101562 71.503906 C 220.101562 70.566406 220.613281 69.800781 221.421875 69.460938 L 219.929688 62.554688 L 212.214844 62.554688 L 213.664062 69.289062 C 214.816406 69.375 215.710938 70.3125 215.710938 71.503906 C 215.710938 72.699219 214.730469 73.679688 213.496094 73.679688 C 212.300781 73.679688 211.320312 72.699219 211.320312 71.503906 C 211.320312 70.566406 211.875 69.757812 212.683594 69.460938 L 211.195312 62.554688 L 203.480469 62.554688 L 204.929688 69.289062 C 206.078125 69.375 206.933594 70.3125 206.933594 71.503906 C 206.933594 72.699219 205.953125 73.679688 204.714844 73.679688 C 203.523438 73.679688 202.542969 72.699219 202.542969 71.503906 C 202.542969 70.523438 203.140625 69.757812 203.949219 69.417969 L 202.457031 62.554688 L 194.660156 62.554688 C 192.742188 62.554688 191.121094 61.234375 190.609375 59.488281 L 183.75 60.9375 C 183.492188 61.917969 182.640625 62.597656 181.617188 62.597656 C 180.382812 62.597656 179.402344 61.617188 179.402344 60.382812 C 179.402344 59.191406 180.382812 58.210938 181.617188 58.210938 C 182.683594 58.210938 183.535156 58.933594 183.75 59.914062 L 190.484375 58.507812 C 190.484375 58.464844 190.484375 58.421875 190.484375 58.421875 L 190.484375 50.792969 L 183.75 52.242188 C 183.453125 53.136719 182.597656 53.820312 181.617188 53.820312 C 180.382812 53.820312 179.402344 52.839844 179.402344 51.605469 C 179.402344 50.410156 180.382812 49.429688 181.617188 49.429688 C 182.683594 49.429688 183.578125 50.199219 183.792969 51.222656 L 190.484375 49.773438 L 190.484375 42.058594 L 183.707031 43.507812 C 183.453125 44.402344 182.597656 45.042969 181.617188 45.042969 C 180.382812 45.042969 179.402344 44.0625 179.402344 42.824219 C 179.402344 41.632812 180.382812 40.652344 181.617188 40.652344 C 182.683594 40.652344 183.621094 41.417969 183.792969 42.484375 L 190.484375 41.035156 L 190.484375 32.683594 C 190.484375 30.722656 191.890625 29.105469 193.722656 28.675781 L 192.273438 21.902344 C 191.25 21.6875 190.484375 20.792969 190.484375 19.726562 C 190.484375 18.492188 191.464844 17.511719 192.699219 17.511719 C 193.933594 17.511719 194.914062 18.492188 194.914062 19.726562 C 194.914062 20.75 194.191406 21.601562 193.253906 21.859375 Z M 195.554688 29.699219 L 219.417969 29.699219 C 221.507812 29.699219 223.210938 31.40625 223.210938 33.492188 L 223.210938 57.613281 C 223.210938 59.699219 221.507812 61.40625 219.417969 61.40625 L 195.554688 61.40625 C 193.464844 61.40625 191.761719 59.699219 191.761719 57.613281 L 191.761719 33.492188 C 191.761719 31.40625 193.464844 29.699219 195.554688 29.699219 Z M 195.554688 29.699219 " fill-opacity="1" fill-rule="evenodd"/></g><path fill="#ffffff" d="M 213.070312 53.605469 L 209.617188 53.605469 L 208.210938 49.941406 L 201.820312 49.941406 L 200.496094 53.605469 L 197.046875 53.605469 L 203.265625 37.625 L 206.675781 37.625 Z M 207.1875 47.257812 L 204.929688 41.335938 L 202.796875 47.257812 Z M 214.6875 53.605469 L 214.6875 37.625 L 217.925781 37.625 L 217.925781 53.605469 Z M 214.6875 53.605469 " fill-opacity="1" fill-rule="nonzero"/><path fill="#ffffff" d="M 82.140625 54.171875 C 83.355469 52.480469 84 50.484375 84 48.390625 L 84 32.082031 C 84 31.269531 83.570312 30.507812 82.882812 30.101562 C 79.339844 27.996094 75.457031 26.480469 71.34375 25.597656 C 70.945312 25.511719 70.542969 25.46875 70.140625 25.46875 C 69.738281 25.46875 69.335938 25.511719 68.9375 25.597656 C 64.824219 26.480469 60.941406 27.996094 57.398438 30.101562 C 56.707031 30.507812 56.28125 31.269531 56.28125 32.082031 L 56.28125 48.390625 C 56.28125 50.484375 56.925781 52.484375 58.140625 54.171875 C 60.703125 57.730469 64.519531 60.363281 70.140625 62.449219 C 75.761719 60.363281 79.578125 57.730469 82.140625 54.171875 Z M 66.917969 39.355469 C 66.917969 37.574219 68.359375 36.132812 70.140625 36.132812 C 71.917969 36.132812 73.363281 37.574219 73.363281 39.355469 C 73.363281 40.664062 72.578125 41.789062 71.457031 42.292969 L 73.015625 52 L 67.265625 52 L 68.824219 42.292969 C 67.703125 41.789062 66.917969 40.664062 66.917969 39.355469 Z M 66.917969 39.355469 " fill-opacity="1" fill-rule="nonzero"/><path fill="#ffffff" d="M 67.578125 66.933594 C 64.097656 66.554688 60.816406 65.429688 57.835938 63.589844 C 57.628906 63.464844 57.367188 63.527344 57.238281 63.730469 C 57.113281 63.9375 57.175781 64.203125 57.378906 64.328125 C 60.472656 66.234375 63.875 67.402344 67.484375 67.792969 C 67.5 67.796875 67.515625 67.796875 67.53125 67.796875 C 67.75 67.796875 67.9375 67.632812 67.960938 67.410156 C 67.988281 67.171875 67.816406 66.960938 67.578125 66.933594 Z M 67.578125 66.933594 " fill-opacity="1" fill-rule="nonzero"/><path fill="#ffffff" d="M 54.996094 23.160156 C 55.082031 23.160156 55.171875 23.132812 55.25 23.074219 C 57.800781 21.21875 60.636719 19.875 63.675781 19.078125 C 63.90625 19.015625 64.046875 18.777344 63.984375 18.546875 C 63.925781 18.316406 63.6875 18.179688 63.457031 18.238281 C 60.3125 19.066406 57.382812 20.457031 54.742188 22.375 C 54.546875 22.515625 54.503906 22.785156 54.644531 22.980469 C 54.730469 23.097656 54.863281 23.160156 54.996094 23.160156 Z M 54.996094 23.160156 " fill-opacity="1" fill-rule="nonzero"/><path fill="#ffffff" d="M 44.84375 38.550781 C 44.875 38.554688 44.902344 38.558594 44.933594 38.558594 C 45.132812 38.558594 45.3125 38.417969 45.355469 38.21875 C 45.84375 35.957031 46.644531 33.769531 47.730469 31.722656 C 47.84375 31.511719 47.765625 31.25 47.554688 31.136719 C 47.34375 31.027344 47.082031 31.105469 46.96875 31.316406 C 45.84375 33.433594 45.015625 35.695312 44.511719 38.035156 C 44.460938 38.269531 44.609375 38.5 44.84375 38.550781 Z M 44.84375 38.550781 " fill-opacity="1" fill-rule="nonzero"/><path fill="#ffffff" d="M 44.125 40.304688 C 43.988281 41.390625 43.917969 42.5 43.917969 43.601562 C 43.917969 43.839844 44.113281 44.035156 44.351562 44.035156 C 44.589844 44.035156 44.785156 43.839844 44.785156 43.601562 C 44.785156 42.535156 44.851562 41.464844 44.984375 40.414062 C 45.011719 40.175781 44.84375 39.960938 44.605469 39.929688 C 44.367188 39.898438 44.152344 40.066406 44.125 40.304688 Z M 44.125 40.304688 " fill-opacity="1" fill-rule="nonzero"/><path fill="#ffffff" d="M 61.089844 63.933594 C 60.996094 64.152344 61.097656 64.40625 61.316406 64.5 C 63.035156 65.226562 64.84375 65.738281 66.691406 66.019531 C 66.710938 66.023438 66.734375 66.023438 66.753906 66.023438 C 66.964844 66.023438 67.148438 65.871094 67.183594 65.65625 C 67.21875 65.417969 67.054688 65.199219 66.820312 65.164062 C 65.042969 64.890625 63.308594 64.402344 61.65625 63.703125 C 61.433594 63.609375 61.179688 63.710938 61.089844 63.933594 Z M 61.089844 63.933594 " fill-opacity="1" fill-rule="nonzero"/><path fill="#ffffff" d="M 43.746094 57.210938 C 43.746094 57.410156 43.90625 57.574219 44.105469 57.574219 C 44.304688 57.574219 44.464844 57.410156 44.464844 57.210938 C 44.464844 57.015625 44.304688 56.851562 44.105469 56.851562 C 43.90625 56.851562 43.746094 57.015625 43.746094 57.210938 Z M 43.746094 57.210938 " fill-opacity="1" fill-rule="nonzero"/><path fill="#ffffff" d="M 90.898438 20.058594 C 91.097656 20.058594 91.257812 19.894531 91.257812 19.699219 C 91.257812 19.5 91.097656 19.335938 90.898438 19.335938 C 90.699219 19.335938 90.539062 19.5 90.539062 19.699219 C 90.539062 19.894531 90.699219 20.058594 90.898438 20.058594 Z M 90.898438 20.058594 " fill-opacity="1" fill-rule="nonzero"/><path fill="#ffffff" d="M 48.050781 69.027344 C 47.851562 69.027344 47.691406 69.191406 47.691406 69.390625 C 47.691406 69.589844 47.851562 69.75 48.050781 69.75 C 48.25 69.75 48.410156 69.589844 48.410156 69.390625 C 48.410156 69.191406 48.25 69.027344 48.050781 69.027344 Z M 48.050781 69.027344 " fill-opacity="1" fill-rule="nonzero"/><g clip-path="url(#ba87ebd55b)"><path fill="#ffffff" d="M 92.632812 25.179688 C 92.871094 25.179688 93.066406 24.984375 93.066406 24.746094 L 93.066406 22.710938 L 95.664062 22.710938 C 95.902344 22.710938 96.09375 22.519531 96.09375 22.277344 C 96.09375 22.039062 95.902344 21.847656 95.664062 21.847656 L 86.023438 21.847656 L 86.023438 20.128906 L 88.75 20.128906 C 88.988281 20.128906 89.179688 19.9375 89.179688 19.699219 C 89.179688 19.457031 88.988281 19.265625 88.75 19.265625 L 85.589844 19.265625 C 85.351562 19.265625 85.160156 19.457031 85.160156 19.699219 L 85.160156 22.117188 L 83.910156 23.550781 C 80.957031 21.511719 77.523438 20.105469 73.792969 19.542969 L 73.792969 17.945312 C 73.792969 17.707031 73.601562 17.511719 73.363281 17.511719 C 73.121094 17.511719 72.929688 17.707031 72.929688 17.945312 L 72.929688 22.726562 C 72.015625 22.605469 71.085938 22.539062 70.140625 22.539062 C 69.195312 22.539062 68.265625 22.605469 67.351562 22.726562 L 67.351562 19.914062 C 67.351562 19.902344 67.347656 19.894531 67.347656 19.882812 C 67.34375 19.875 67.347656 19.867188 67.347656 19.855469 C 67.34375 19.835938 67.335938 19.816406 67.328125 19.800781 C 67.320312 19.773438 67.316406 19.746094 67.300781 19.722656 C 67.289062 19.691406 67.269531 19.671875 67.25 19.644531 C 67.238281 19.628906 67.222656 19.609375 67.207031 19.59375 C 67.179688 19.574219 67.15625 19.554688 67.128906 19.539062 C 67.105469 19.53125 67.085938 19.519531 67.0625 19.507812 C 67.035156 19.5 67.003906 19.496094 66.972656 19.492188 C 66.953125 19.488281 66.9375 19.480469 66.917969 19.480469 C 66.910156 19.480469 66.902344 19.484375 66.890625 19.484375 C 66.882812 19.488281 66.871094 19.484375 66.859375 19.484375 C 61.714844 20.175781 57.035156 22.449219 53.285156 26.054688 L 52.0625 24.910156 C 51.980469 24.835938 51.875 24.792969 51.765625 24.792969 L 46.152344 24.792969 L 46.152344 21.308594 C 46.152344 21.070312 45.957031 20.875 45.71875 20.875 C 45.480469 20.875 45.285156 21.070312 45.285156 21.308594 L 45.285156 24.792969 L 43.3125 24.792969 C 43.074219 24.792969 42.878906 24.988281 42.878906 25.226562 C 42.878906 25.464844 43.074219 25.660156 43.3125 25.660156 L 43.960938 25.660156 L 43.960938 31.027344 C 43.960938 31.265625 44.15625 31.460938 44.394531 31.460938 C 44.632812 31.460938 44.828125 31.265625 44.828125 31.027344 L 44.828125 25.660156 L 48.320312 25.660156 L 48.320312 27.671875 C 48.320312 27.910156 48.511719 28.105469 48.75 28.105469 C 48.992188 28.105469 49.183594 27.910156 49.183594 27.671875 L 49.183594 25.660156 L 51.59375 25.660156 L 55.070312 28.90625 C 53.921875 30.082031 52.910156 31.390625 52.0625 32.804688 L 49.761719 31.167969 C 49.753906 31.164062 49.746094 31.164062 49.742188 31.160156 C 49.738281 31.15625 49.734375 31.152344 49.726562 31.148438 C 49.707031 31.136719 49.6875 31.132812 49.667969 31.125 C 49.640625 31.113281 49.613281 31.101562 49.582031 31.097656 C 49.554688 31.09375 49.53125 31.09375 49.503906 31.09375 C 49.472656 31.09375 49.445312 31.09375 49.417969 31.101562 C 49.390625 31.105469 49.367188 31.117188 49.339844 31.128906 C 49.316406 31.140625 49.292969 31.148438 49.269531 31.164062 C 49.242188 31.179688 49.222656 31.203125 49.203125 31.226562 C 49.1875 31.242188 49.167969 31.25 49.15625 31.269531 C 49.152344 31.273438 49.152344 31.28125 49.148438 31.285156 C 49.144531 31.292969 49.140625 31.296875 49.136719 31.300781 C 46.957031 35.015625 45.804688 39.269531 45.804688 43.601562 C 45.804688 49.515625 47.949219 55.214844 51.847656 59.652344 C 51.933594 59.75 52.054688 59.800781 52.171875 59.800781 C 52.273438 59.800781 52.375 59.765625 52.460938 59.691406 C 52.640625 59.535156 52.65625 59.261719 52.5 59.082031 C 51.886719 58.382812 51.324219 57.652344 50.804688 56.894531 L 52.527344 55.1875 C 54.234375 57.78125 56.523438 60 59.28125 61.652344 L 44.539062 61.652344 L 44.539062 59.367188 C 44.539062 59.128906 44.34375 58.933594 44.105469 58.933594 C 43.867188 58.933594 43.671875 59.128906 43.671875 59.367188 L 43.671875 62.085938 C 43.671875 62.324219 43.867188 62.519531 44.105469 62.519531 L 47.617188 62.519531 L 47.617188 67.152344 C 47.617188 67.390625 47.8125 67.585938 48.050781 67.585938 C 48.289062 67.585938 48.484375 67.390625 48.484375 67.152344 L 48.484375 62.519531 L 50.742188 62.519531 L 50.742188 64.617188 C 50.742188 64.859375 50.9375 65.050781 51.175781 65.050781 C 51.414062 65.050781 51.609375 64.859375 51.609375 64.617188 L 51.609375 62.519531 L 60.96875 62.519531 C 60.988281 62.519531 61.007812 62.507812 61.027344 62.507812 C 61.058594 62.503906 61.09375 62.5 61.125 62.488281 C 61.148438 62.476562 61.167969 62.460938 61.191406 62.449219 C 61.214844 62.433594 61.242188 62.421875 61.261719 62.398438 C 61.285156 62.378906 61.300781 62.351562 61.316406 62.328125 C 61.328125 62.308594 61.347656 62.296875 61.355469 62.277344 C 61.359375 62.273438 61.359375 62.269531 61.359375 62.265625 C 61.371094 62.238281 61.375 62.210938 61.382812 62.183594 C 61.390625 62.152344 61.398438 62.125 61.398438 62.097656 C 61.398438 62.09375 61.402344 62.089844 61.402344 62.085938 C 61.402344 62.0625 61.394531 62.042969 61.390625 62.023438 C 61.386719 61.992188 61.382812 61.960938 61.371094 61.933594 C 61.363281 61.90625 61.34375 61.882812 61.332031 61.859375 C 61.316406 61.835938 61.304688 61.8125 61.285156 61.792969 C 61.265625 61.769531 61.238281 61.753906 61.210938 61.734375 C 61.195312 61.722656 61.183594 61.707031 61.164062 61.699219 C 57.738281 59.996094 54.960938 57.441406 53.023438 54.355469 C 53.003906 54.296875 52.972656 54.234375 52.921875 54.1875 C 52.921875 54.183594 52.914062 54.183594 52.914062 54.179688 C 51 51.066406 49.941406 47.429688 49.941406 43.601562 C 49.941406 32.464844 59.003906 23.402344 70.140625 23.402344 C 81.277344 23.402344 90.335938 32.464844 90.335938 43.601562 C 90.335938 54.738281 81.277344 63.796875 70.140625 63.796875 C 69.902344 63.796875 69.707031 63.992188 69.707031 64.230469 L 69.707031 71.601562 C 69.707031 71.839844 69.902344 72.035156 70.140625 72.035156 C 70.378906 72.035156 70.574219 71.839844 70.574219 71.601562 L 70.574219 70.148438 L 74.46875 70.148438 C 74.707031 70.148438 74.902344 69.953125 74.902344 69.714844 C 74.902344 69.476562 74.707031 69.28125 74.46875 69.28125 L 70.574219 69.28125 L 70.574219 67.925781 C 76.792969 67.820312 82.621094 65.394531 87.082031 61.0625 L 87.746094 61.839844 C 85.488281 64.019531 82.890625 65.746094 80.011719 66.964844 C 79.789062 67.058594 79.6875 67.3125 79.78125 67.53125 C 79.851562 67.695312 80.011719 67.796875 80.179688 67.796875 C 80.234375 67.796875 80.292969 67.785156 80.347656 67.761719 C 83.3125 66.507812 85.984375 64.734375 88.304688 62.5 L 89.914062 64.390625 L 89.914062 66.851562 C 89.914062 67.09375 90.109375 67.285156 90.347656 67.285156 C 90.585938 67.285156 90.78125 67.09375 90.78125 66.851562 L 90.78125 64.664062 L 91.953125 64.664062 L 91.953125 68.542969 C 91.953125 68.78125 92.148438 68.972656 92.386719 68.972656 C 92.625 68.972656 92.820312 68.78125 92.820312 68.542969 L 92.820312 64.664062 L 95.457031 64.664062 C 95.695312 64.664062 95.890625 64.46875 95.890625 64.230469 C 95.890625 63.992188 95.695312 63.796875 95.457031 63.796875 L 90.546875 63.796875 L 85.554688 57.933594 C 85.949219 57.507812 86.328125 57.066406 86.6875 56.609375 L 90.453125 60.667969 C 90.535156 60.757812 90.648438 60.804688 90.769531 60.804688 L 94.753906 60.804688 C 94.992188 60.804688 95.183594 60.613281 95.183594 60.375 C 95.183594 60.136719 94.992188 59.941406 94.753906 59.941406 L 93.144531 59.941406 L 93.144531 57.15625 C 93.144531 56.917969 92.953125 56.722656 92.714844 56.722656 C 92.472656 56.722656 92.28125 56.917969 92.28125 57.15625 L 92.28125 59.941406 L 90.957031 59.941406 L 88.339844 57.121094 C 89.246094 55.90625 90.03125 54.605469 90.671875 53.242188 C 90.773438 53.023438 90.683594 52.765625 90.464844 52.664062 C 90.25 52.5625 89.992188 52.65625 89.890625 52.871094 C 89.296875 54.136719 88.570312 55.34375 87.742188 56.472656 L 87.214844 55.910156 C 89.722656 52.445312 91.203125 48.191406 91.203125 43.601562 C 91.203125 33.234375 83.671875 24.597656 73.792969 22.863281 L 73.792969 20.417969 C 85.125 22.191406 93.609375 32.066406 93.609375 43.601562 C 93.609375 45.367188 93.414062 47.128906 93.023438 48.839844 C 92.972656 49.070312 93.117188 49.304688 93.351562 49.355469 C 93.382812 49.363281 93.414062 49.367188 93.445312 49.367188 C 93.644531 49.367188 93.824219 49.230469 93.867188 49.03125 C 94.273438 47.257812 94.476562 45.433594 94.476562 43.601562 C 94.476562 35.6875 90.625 28.53125 84.617188 24.054688 L 85.789062 22.710938 L 89.394531 22.710938 L 89.394531 26.4375 C 89.394531 26.679688 89.585938 26.871094 89.828125 26.871094 C 90.066406 26.871094 90.261719 26.679688 90.261719 26.4375 L 90.261719 22.710938 L 92.203125 22.710938 L 92.203125 24.746094 C 92.199219 24.984375 92.394531 25.179688 92.632812 25.179688 Z M 49.078125 43.601562 C 49.078125 47.515625 50.140625 51.234375 52.058594 54.4375 L 50.316406 56.160156 C 47.949219 52.425781 46.667969 48.078125 46.667969 43.601562 C 46.667969 39.582031 47.699219 35.636719 49.648438 32.152344 L 51.628906 33.558594 C 50.003906 36.546875 49.078125 39.96875 49.078125 43.601562 Z M 66.484375 22.863281 C 62.347656 23.589844 58.621094 25.527344 55.6875 28.300781 L 53.917969 26.644531 C 57.40625 23.304688 61.734375 21.160156 66.488281 20.417969 L 66.488281 22.863281 Z M 86.519531 60.402344 C 82.214844 64.601562 76.585938 66.953125 70.574219 67.0625 L 70.574219 64.652344 C 76.171875 64.539062 81.238281 62.234375 84.953125 58.558594 Z M 86.519531 60.402344 " fill-opacity="1" fill-rule="nonzero"/></g><g clip-path="url(#f571e37878)"><path fill="#ffffff" d="M 166.28125 169.304688 L 110.710938 169.304688 L 110.710938 139.800781 C 110.710938 139.667969 110.820312 139.5625 110.953125 139.5625 L 166.042969 139.5625 C 166.171875 139.5625 166.28125 139.667969 166.28125 139.800781 Z M 144.585938 175.023438 C 144.300781 175.308594 143.90625 175.484375 143.46875 175.484375 L 133.523438 175.484375 C 132.648438 175.484375 131.941406 174.777344 131.941406 173.902344 C 131.941406 173.464844 132.117188 173.070312 132.40625 172.78125 C 132.691406 172.496094 133.085938 172.320312 133.523438 172.320312 L 143.46875 172.320312 C 144.34375 172.320312 145.050781 173.027344 145.050781 173.902344 C 145.050781 174.339844 144.875 174.734375 144.585938 175.023438 Z M 166.042969 136.90625 L 110.953125 136.90625 C 109.355469 136.90625 108.054688 138.207031 108.054688 139.800781 L 108.054688 174.851562 C 108.054688 176.445312 109.355469 177.746094 110.953125 177.746094 L 166.042969 177.746094 C 167.636719 177.746094 168.9375 176.445312 168.9375 174.851562 L 168.9375 139.800781 C 168.9375 138.207031 167.636719 136.90625 166.042969 136.90625 " fill-opacity="1" fill-rule="nonzero"/></g><path fill="#ffffff" d="M 144.253906 173.902344 C 144.253906 174.113281 144.171875 174.308594 144.023438 174.457031 C 143.875 174.605469 143.679688 174.6875 143.46875 174.6875 L 133.523438 174.6875 C 133.089844 174.6875 132.738281 174.335938 132.738281 173.902344 C 132.738281 173.691406 132.820312 173.496094 132.96875 173.34375 C 133.117188 173.199219 133.3125 173.117188 133.523438 173.117188 L 143.46875 173.117188 C 143.902344 173.117188 144.253906 173.46875 144.253906 173.902344 " fill-opacity="1" fill-rule="nonzero"/><path fill="#ffffff" d="M 156.402344 187.246094 L 120.59375 187.246094 C 121.304688 185.160156 123.28125 183.65625 125.605469 183.65625 L 151.390625 183.65625 C 153.710938 183.65625 155.691406 185.160156 156.402344 187.246094 " fill-opacity="1" fill-rule="nonzero"/><path fill="#ffffff" d="M 145.3125 182.695312 L 131.679688 182.695312 L 133.023438 178.707031 L 143.972656 178.707031 L 145.3125 182.695312 " fill-opacity="1" fill-rule="nonzero"/><g clip-path="url(#12f0ae02e0)"><path fill="#ffffff" d="M 138.488281 163.207031 C 137.785156 163.207031 137.152344 163.488281 136.683594 163.941406 L 136.652344 163.972656 C 136.179688 164.441406 135.886719 165.085938 135.886719 165.808594 C 135.886719 166.523438 136.179688 167.175781 136.652344 167.644531 C 137.121094 168.117188 137.773438 168.410156 138.488281 168.410156 C 139.191406 168.410156 139.824219 168.128906 140.296875 167.675781 L 140.324219 167.644531 C 140.796875 167.175781 141.089844 166.527344 141.089844 165.808594 C 141.089844 165.09375 140.796875 164.441406 140.324219 163.972656 C 139.855469 163.5 139.203125 163.207031 138.488281 163.207031 Z M 139.59375 166.914062 L 139.570312 166.9375 C 139.289062 167.207031 138.910156 167.371094 138.488281 167.371094 C 138.054688 167.371094 137.664062 167.195312 137.382812 166.914062 C 137.105469 166.632812 136.925781 166.242188 136.925781 165.808594 C 136.925781 165.375 137.105469 164.984375 137.382812 164.703125 L 137.410156 164.679688 C 137.6875 164.410156 138.066406 164.246094 138.488281 164.246094 C 138.921875 164.246094 139.3125 164.421875 139.59375 164.703125 C 139.878906 164.992188 140.050781 165.382812 140.050781 165.808594 C 140.050781 166.242188 139.875 166.632812 139.59375 166.914062 Z M 149.445312 154.207031 C 148.015625 152.777344 146.308594 151.625 144.410156 150.835938 C 142.585938 150.078125 140.582031 149.660156 138.484375 149.660156 C 136.390625 149.660156 134.386719 150.078125 132.558594 150.835938 C 130.660156 151.625 128.949219 152.777344 127.523438 154.207031 L 127.316406 154.417969 C 127.121094 154.621094 127.125 154.9375 127.320312 155.140625 L 129.542969 157.410156 C 129.746094 157.613281 130.074219 157.617188 130.273438 157.417969 L 130.5 157.183594 C 131.546875 156.140625 132.789062 155.304688 134.167969 154.730469 C 135.5 154.183594 136.957031 153.878906 138.476562 153.878906 C 140.011719 153.878906 141.46875 154.183594 142.800781 154.730469 C 144.179688 155.300781 145.421875 156.140625 146.46875 157.183594 C 146.546875 157.25 146.613281 157.332031 146.6875 157.40625 C 146.886719 157.605469 147.210938 157.613281 147.417969 157.417969 L 149.648438 155.140625 C 149.847656 154.9375 149.847656 154.613281 149.648438 154.414062 C 149.628906 154.394531 149.445312 154.207031 149.445312 154.207031 Z M 147.074219 156.3125 C 145.972656 155.242188 144.660156 154.378906 143.210938 153.777344 C 141.753906 153.179688 140.160156 152.84375 138.496094 152.84375 C 136.820312 152.84375 135.230469 153.175781 133.777344 153.777344 C 132.324219 154.375 131.015625 155.242188 129.914062 156.3125 L 128.429688 154.785156 C 129.730469 153.523438 131.269531 152.503906 132.964844 151.800781 C 134.667969 151.101562 136.535156 150.710938 138.5 150.710938 C 140.464844 150.710938 142.332031 151.09375 144.035156 151.800781 C 145.734375 152.503906 147.273438 153.523438 148.570312 154.785156 Z M 154.46875 149.476562 C 154.449219 149.464844 154.320312 149.335938 154.320312 149.328125 C 152.257812 147.265625 149.792969 145.601562 147.046875 144.464844 C 144.410156 143.371094 141.515625 142.769531 138.480469 142.769531 C 135.457031 142.769531 132.5625 143.371094 129.917969 144.464844 C 127.171875 145.601562 124.707031 147.265625 122.644531 149.328125 L 122.496094 149.480469 C 122.300781 149.683594 122.300781 150.007812 122.496094 150.207031 L 124.71875 152.476562 C 124.921875 152.679688 125.25 152.6875 125.453125 152.484375 L 125.628906 152.308594 C 127.304688 150.628906 129.308594 149.28125 131.53125 148.359375 C 133.671875 147.472656 136.023438 146.980469 138.480469 146.984375 C 140.949219 146.984375 143.296875 147.472656 145.441406 148.359375 C 147.664062 149.273438 149.664062 150.628906 151.34375 152.308594 C 151.402344 152.363281 151.457031 152.425781 151.511719 152.480469 C 151.714844 152.679688 152.042969 152.6875 152.246094 152.484375 L 154.472656 150.210938 C 154.675781 150.007812 154.667969 149.675781 154.46875 149.476562 Z M 151.898438 151.378906 C 150.164062 149.703125 148.121094 148.339844 145.847656 147.402344 C 143.578125 146.460938 141.101562 145.941406 138.496094 145.941406 C 135.890625 145.941406 133.40625 146.460938 131.140625 147.402344 C 128.871094 148.339844 126.820312 149.703125 125.09375 151.378906 L 123.609375 149.855469 C 125.539062 147.980469 127.8125 146.464844 130.328125 145.421875 C 132.839844 144.378906 135.601562 143.804688 138.5 143.804688 C 141.398438 143.804688 144.15625 144.378906 146.671875 145.421875 C 149.1875 146.46875 151.464844 147.980469 153.390625 149.855469 Z M 144.402344 159.253906 C 143.628906 158.484375 142.707031 157.863281 141.679688 157.433594 C 140.691406 157.027344 139.613281 156.800781 138.484375 156.800781 C 137.355469 156.800781 136.273438 157.027344 135.285156 157.433594 C 134.261719 157.863281 133.339844 158.484375 132.570312 159.253906 C 132.476562 159.34375 132.390625 159.4375 132.300781 159.535156 C 132.117188 159.742188 132.125 160.054688 132.3125 160.25 L 134.539062 162.519531 C 134.742188 162.71875 135.070312 162.726562 135.273438 162.523438 L 135.425781 162.359375 L 135.546875 162.230469 C 135.929688 161.847656 136.390625 161.535156 136.894531 161.328125 C 137.382812 161.125 137.921875 161.011719 138.496094 161.015625 C 139.0625 161.015625 139.597656 161.125 140.085938 161.328125 C 140.59375 161.535156 141.050781 161.847656 141.4375 162.230469 L 141.558594 162.359375 L 141.675781 162.488281 C 141.859375 162.703125 142.179688 162.734375 142.402344 162.550781 L 142.4375 162.519531 L 144.660156 160.25 C 144.847656 160.046875 144.855469 159.734375 144.671875 159.535156 Z M 142.070312 161.410156 C 141.613281 160.976562 141.070312 160.621094 140.472656 160.371094 C 139.863281 160.113281 139.191406 159.972656 138.488281 159.972656 C 137.792969 159.972656 137.121094 160.113281 136.503906 160.371094 C 135.90625 160.613281 135.363281 160.976562 134.90625 161.410156 L 133.410156 159.882812 C 134.0625 159.253906 134.832031 158.746094 135.679688 158.394531 C 136.546875 158.035156 137.492188 157.839844 138.488281 157.839844 C 139.488281 157.839844 140.433594 158.039062 141.296875 158.394531 C 142.144531 158.746094 142.914062 159.253906 143.566406 159.882812 Z M 142.070312 161.410156 " fill-opacity="1" fill-rule="nonzero"/></g></g></g></svg>